<?xml version="1.0" encoding="utf-8"?>
<!-- Svg Vector Icons : http://www.onlinewebfonts.com/icon -->
<!DOCTYPE svg PUBLIC "-//W3C//DTD SVG 1.1//EN" "http://www.w3.org/Graphics/SVG/1.1/DTD/svg11.dtd">
<svg version="1.1" xmlns="http://www.w3.org/2000/svg" xmlns:xlink="http://www.w3.org/1999/xlink" x="0px" y="0px" viewBox="0 0 1000 1000" enable-background="new 0 0 1000 1000" xml:space="preserve">
<metadata> Svg Vector Icons : http://www.onlinewebfonts.com/icon </metadata>
<g><g transform="translate(0.000000,511.000000) scale(0.100000,-0.100000)"><path d="M3422.9,4591.1c-400.7-63.4-729.8-220.8-1024.1-490.6c-429.3-392.5-646-1016-625.5-1796.9l8.2-267.8l-53.2-20.4c-149.2-63.4-259.6-261.7-276-504.9c-26.6-341.4,108.3-650.1,423.2-977.1c106.3-110.4,149.2-173.8,188.1-276c126.7-337.3,280.1-574.4,515.1-793.2L2734-680.9l-6.1-198.3l-6.1-198.3l-92-30.7C1738.5-1398.4,514-1891,428.2-1995.3c-38.8-47-167.6-498.8-231-811.6c-83.8-417-116.5-817.7-85.9-1093.7c26.6-233,83.8-402.7,155.4-451.8c36.8-26.6,656.2-30.7,4736.4-30.7c4648.5,0,4695.5,0,4744.6,40.9c173.8,134.9,202.4,740,67.5,1400.3c-65.4,325-163.5,662.3-210.5,725.7c-63.4,85.9-707.3,363.9-1598.6,690.9c-245.3,90-378.2,149.2-378.2,167.6c0,22.5,77.7,36.8,327.1,65.4c701.2,77.7,1116.1,194.2,1230.6,343.4c36.8,49.1,49,153.3,26.6,216.7c-36.8,98.1-100.2,147.2-284.2,222.8c-222.8,94-351.6,188.1-423.1,308.7c-69.5,120.6-73.6,224.9-18.4,580.6c30.7,200.3,38.8,361.8,38.8,756.4c0,443.6-4.1,525.4-45,713.4c-145.2,662.3-453.8,1038.5-956.7,1167.2c-85.9,22.5-198.3,40.9-249.4,40.9c-63.4,0-122.7,18.4-196.3,59.3c-357.7,202.4-809.5,251.4-1146.8,122.7c-55.2-20.4-108.3-38.8-114.5-38.8c-8.2,0-42.9,85.9-79.7,190.1c-96.1,276-194.2,447.7-349.6,615.3c-243.3,261.7-578.5,459.9-921.9,545.8c-132.9,32.7-249.4,42.9-547.8,49.1C3709.1,4605.5,3486.3,4601.4,3422.9,4591.1z M4336.7,4131.2c300.5-63.4,543.8-194.2,758.4-408.8c343.4-343.4,492.7-899.5,435.4-1629.2c-26.6-333.2-18.4-376.1,75.6-437.5c28.6-20.4,92-36.8,137-36.8c114.5-2,141.1-55.2,130.8-247.4c-12.3-216.7-100.2-382.3-323-605.1c-147.2-145.1-194.2-210.5-286.2-388.4C5097.1,51,4902.9-225,4716.9-400.8l-165.6-157.4v-341.4V-1239l67.5-65.4c51.1-51.1,120.6-83.8,306.6-143.1c130.8-40.9,239.2-83.8,239.2-92c0-57.3-404.8-355.7-643.9-476.3c-296.4-151.3-507-202.4-821.8-202.4c-282.1,0-509,55.2-793.1,196.2c-218.7,106.3-596.9,370-572.4,396.6c8.2,6.1,165.6,63.4,353.6,126.7c271.9,89.9,347.5,124.7,380.2,167.6c36.8,51.1,42.9,94,49.1,443.6l8.2,386.4l-59.3,57.2c-32.7,30.7-112.4,96.1-175.8,143.1c-206.5,155.4-406.8,468.1-494.7,770.7c-30.7,106.3-55.2,141-224.9,306.6c-231,229-320.9,392.5-333.2,607.1c-12.3,188.1,10.2,222.8,141,222.8c87.9,0,112.4,10.2,165.6,61.3c61.3,61.3,61.3,63.4,42.9,210.6c-24.5,224.9-18.4,885.1,12.3,1026.2c92,435.4,267.8,742,541.7,946.5c163.5,120.6,417,239.2,594.9,276C3531.3,4170,4142.5,4172.1,4336.7,4131.2z M6703.9,2865.8c77.7-28.6,184-81.8,235.1-118.6c87.9-61.3,112.4-67.5,304.6-77.7c177.9-12.3,226.9-22.5,341.4-79.7c423.1-206.5,627.6-840.2,564.2-1745.8c-22.5-333.2-26.6-359.8-75.6-629.6c-26.6-143.1-26.6-202.4-8.2-306.6c45-257.6,208.5-496.7,437.4-637.8c53.2-32.7,94.1-63.4,90-67.5c-16.3-16.3-498.8-90-854.5-130.8c-390.4-45-455.9-65.4-488.6-151.3c-28.6-79.7,0-519.2,38.8-566.3c18.4-22.5,216.7-114.5,441.5-204.4c562.2-229,1222.4-511.1,1416.6-609.2l159.5-79.7l45-161.5c100.2-372.1,167.6-801.3,167.6-1073.2v-159.4h-975.1h-977.1l-2,343.4c-2.1,347.5-32.7,617.4-112.4,964.9c-73.6,316.9-143.1,519.2-198.3,580.6c-108.3,114.5-991.4,507-1895,842.2l-347.5,126.7l-6.1,202.4l-6.1,202.4l102.2,85.8c192.2,161.5,378.2,457.9,498.8,791.1c42.9,122.7,75.6,167.6,222.8,316.9c261.7,263.7,394.5,519.2,417,803.4c24.5,276-77.7,529.5-247.3,615.3l-81.8,42.9v417v415l55.2,28.6C6162.2,2947.6,6466.8,2957.8,6703.9,2865.8z"/></g></g>
</svg>